<svg xmlns="http://www.w3.org/2000/svg" xmlns:xlink="http://www.w3.org/1999/xlink" style="margin:auto;background:#f1f2f3;display:block;z-index:1;position:relative" width="1879" height="939" preserveAspectRatio="xMidYMid" viewBox="0 0 1879 939">
<g transform="translate(939.5,469.5) scale(1,1) translate(-939.5,-469.5)"><g transform="translate(1547.5571729722105,27.720604376977178) scale(100)" opacity="0.4">
  <path d="M7.1402 0 C7.1402 2.6306 8.149799281586034 1.6677335728046554 6.834499281586034 3.9458999999999995 S5.848266427195345 4.868294588101648 3.570100000000001 6.1835945881016485 S2.6306000000000003 7.8918 4.832333804755541e-16 7.8918 S-1.2919335728046542 7.498894588101649 -3.5700999999999983 6.183594588101649 S-5.519199281586031 6.224066427195346 -6.834499281586032 3.9459000000000026 S-7.1402 2.6306000000000007 -7.1402 8.744223075271931e-16 S-8.149799281586034 -1.6677335728046532 -6.834499281586035 -3.9458999999999977 S-5.848266427195346 -4.868294588101646 -3.570100000000003 -6.183594588101648 S-2.630600000000001 -7.891799999999999 -1.4497001414266623e-15 -7.8918 S1.2919335728046502 -7.49889458810165 3.570099999999995 -6.183594588101652 S5.51919928158603 -6.224066427195346 6.834499281586031 -3.9459000000000035 S7.140199999999999 -2.6306000000000016 7.1402 -1.7488446150543862e-15" fill="#d39862" stroke-width="0">
    <animateTransform attributeName="transform" type="rotate" dur="10s" repeatCount="indefinite" values="0;60"></animateTransform>
  </path>
</g><g transform="translate(1669.1686075666526,-60.63527474762736) scale(100)" opacity="0.4">
  <path d="M8.56824 0 C8.56824 3.1567199999999995 9.77975913790324 2.001280287365586 8.20139913790324 4.735079999999999 S7.017919712634413 5.841953505721977 4.284120000000001 7.420313505721977 S3.15672 9.47016 5.798800565706649e-16 9.47016 S-1.5503202873655848 8.998673505721978 -4.284119999999998 7.420313505721978 S-6.623039137903237 7.468879712634416 -8.201399137903238 4.7350800000000035 S-8.56824 3.1567200000000004 -8.56824 1.0493067690326318e-15 S-9.77975913790324 -2.001280287365584 -8.201399137903241 -4.735079999999997 S-7.0179197126344155 -5.841953505721976 -4.284120000000003 -7.4203135057219765 S-3.1567200000000013 -9.47016 -1.7396401697119945e-15 -9.47016 S1.5503202873655804 -8.99867350572198 4.284119999999994 -7.420313505721982 S6.623039137903237 -7.468879712634417 8.201399137903238 -4.735080000000004 S8.56824 -3.1567200000000017 8.56824 -2.0986135380652636e-15" fill="#d5a062" stroke-width="0">
    <animateTransform attributeName="transform" type="rotate" dur="5s" repeatCount="indefinite" values="0;60"></animateTransform>
  </path>
</g><g transform="translate(1961.0360505933136,-272.68938464667826) scale(100)" opacity="0.4">
  <path d="M11.995535999999998 0 C11.995535999999998 4.419407999999999 13.691662793064534 2.8017924023118206 11.481958793064535 6.629111999999998 S9.825087597688178 8.178734908010767 5.997768 10.388438908010768 S4.419408 13.258223999999998 8.118320791989308e-16 13.258223999999998 S-2.1704484023118185 12.598142908010768 -5.997767999999996 10.38843890801077 S-9.272254793064532 10.45643159768818 -11.481958793064532 6.629112000000004 S-11.995535999999998 4.419408000000001 -11.995535999999998 1.4690294766456842e-15 S-13.691662793064534 -2.8017924023118175 -11.481958793064535 -6.629111999999996 S-9.825087597688182 -8.178734908010764 -5.997768000000004 -10.388438908010766 S-4.419408000000002 -13.258223999999998 -2.435496237596792e-15 -13.258223999999998 S2.170448402311812 -12.59814290801077 5.997767999999991 -10.388438908010773 S9.27225479306453 -10.456431597688182 11.48195879306453 -6.6291120000000054 S11.995535999999996 -4.419408000000002 11.995535999999998 -2.9380589532913683e-15" fill="#d7a862" stroke-width="0">
    <animateTransform attributeName="transform" type="rotate" dur="3.3333333333333335s" repeatCount="indefinite" values="0;60"></animateTransform>
  </path>
</g></g>
</svg>